# xmcd CD database file generated by Grip 3.0.4
# 
# Track frame offsets:
#       150
#       8369
#       18237
#       24190
#       39312
#       55257
#       66495
#       82918
#       104649
#       117370
#       123460
#       144321
#       161837
#       177453
#       193827
#       203158
#       213755
#       229701
#       249624
#       266572
#       277971
#       293181
#       311580
# 
# Disc length: 4432 seconds
# 
# Revision: 2
# Processed by: cddbd v1.4PL0 Copyright (c) Steve Scherf et al.
# Submitted via: Grip 3.0.4
# 
DISCID=43114e17
DTITLE=Various Artist - Silk Road, The [CD2]
DYEAR=2002
DGENRE=Folk
TTITLE0=Edil Huseinov (jew's harp) - Jew's Harp Melody
TTITLE1=Evgeni Ulugbashev (chatkhan) - Khai
TTITLE2=Kelek Kumaqay-olu (sybyzghy) - Tepen Kok
TTITLE3=Sabjilar: Slava Kuchenov, Sergei Charkov, Anna Burnakova - Kogmen
TTITLE4=Jaule Bakshi (dombra) - Excerpt From Alpamish Epic
TTITLE5=Qalbeke Uzaqbergenova (dutar) - Beyish Namsi
TTITLE6=Almas Almatov (dombra) - Terme
TTITLE7=Dordi Torik (vocal and dutar) - Rahman Qilich Yomudi (ghijak)  - Lament
TTITLE8=Sirajoddin Juraev (dutar) - Mashq-e Javanan
TTITLE9=Nurlanbeck Nishanov (temir qobyz) - Kuu
TTITLE10=Abdurashid Nadirev (vocals and dutar), Abdughani Tukhtiev (tanbur) - S
TTITLE10=anam
TTITLE11=Abdulah Nazriev (vocal and satar), with Isma'il (dombra), Davlat (tar)
TTITLE11=Charzarb
TTITLE12=Muhammaud Rahim Tkhary (dambura), Faqir Muhammad (rubab), Bahuddin (ta
TTITLE12=nbur), Malang Nejrabi (zirbaghali) - Minghan-i Siyah
TTITLE13=Asheq Hasan (vocal and saz), Sohrab (balaban), Ibrahim (qaval) - Love 
TTITLE13=Song
TTITLE14=Edil Huseinov (shang qobyz) - Qara Olu
TTITLE15=Sayan Aqmoldawv (qylqobyz) - Kertolghau
TTITLE16=Khodapanah Berdov (satar), Karakhan Karakhanov (tanbur), Mahingul Naza
TTITLE16=rshaheva (vocal) - Dargilik
TTITLE17=T. Soltan Qalebov and S. Tawarov (vocal and rubab) - Madh
TTITLE18=Naqshbandi Afaqi Brotherhood - Zikr
TTITLE19=Akil Sekebaev (vocal and komuz) - Kyrgys Wisdom Song
TTITLE20=Abdollah Sarvar Ahmadi (dutar), M. Salar Ahmadi (vocal) - Allah Madad
TTITLE21=Alevi Faizulah Chinar (vocal and soz) - Alevi Song
TTITLE22=Jarrahi Dervishes and others - Sufi Hymn
EXTD=
EXTT0=
EXTT1=
EXTT2=
EXTT3=
EXTT4=
EXTT5=
EXTT6=
EXTT7=
EXTT8=
EXTT9=
EXTT10=
EXTT11=
EXTT12=
EXTT13=
EXTT14=
EXTT15=
EXTT16=
EXTT17=
EXTT18=
EXTT19=
EXTT20=
EXTT21=
EXTT22=
PLAYORDER=
